<svg width="513" height="513" viewBox="0 0 513 513" fill="none" xmlns="http://www.w3.org/2000/svg">
<path d="M0.5 170.488L327.19 3.04473L377.179 103.307L243.372 173.542C306.77 299.465 326.475 370.331 327.19 512.5H512.5V0.5H0.5V170.488Z" fill="white"/>
<path d="M0.5 512.5H217.62C215.043 391.265 196.483 328.468 140.366 223.418L0.5 296.198V512.5Z" fill="white"/>
<path d="M0.5 170.488L327.19 3.04473L377.179 103.307L243.372 173.542C306.77 299.465 326.475 370.331 327.19 512.5H512.5V0.5H0.5V170.488Z" stroke="white"/>
<path d="M0.5 512.5H217.62C215.043 391.265 196.483 328.468 140.366 223.418L0.5 296.198V512.5Z" stroke="white"/>
</svg>
